<?xml version="1.0" encoding="UTF-8"?>
<svg id="Layer_1" xmlns="http://www.w3.org/2000/svg" version="1.1" viewBox="0 0 800 800">
  <!-- Generator: Adobe Illustrator 29.1.0, SVG Export Plug-In . SVG Version: 2.1.0 Build 142)  -->
  <path d="M264.63,686.43c-25.75-4.88-42.86-24.96-44.05-51.23l-28.7-348.01-1.03-2.27c-32.62-11.84-43.78-52.64-20.92-79.25,6.48-7.55,22.49-17.11,32.46-17.11h87.57v-21.48c0-23.87,25.63-42.99,47.87-44.65,46.28-3.47,98.56,1.55,145.14,1.45,17.97,2.92,38.31,24.95,38.31,43.2v21.48h87.57c21.49,0,42.16,23.76,44.61,44.06v12.12c-3.99,18.67-14.83,33.45-33.07,40.18l-1.03,2.27-28.7,348.01c-1.19,26.26-18.3,46.35-44.05,51.23h-281.99ZM323.01,168.18c-1.14,5.55.84,14.4,0,20.38h165.23v-20.38c0-.49-4.31-7.43-5.25-8.28-2.66-2.42-7.11-4.09-10.67-4.44-42.29-4.19-91.45,3.26-134.46.03-5.76.34-13.72,7.21-14.85,12.69ZM615.65,226.38c-1.55-1.55-4.64-2.62-6.53-3.94l-403.44-.86c-19.71,3.94-19.71,29.15,0,33.09h399.9c13.32-2,20.2-18.17,10.07-28.29ZM586.28,287.69H224.98l28.65,345.3c1.51,11.44,3.97,19.28,17.02,20.43h268.86c13.89-1.03,16.47-7.95,18.12-20.43l28.65-345.3Z"/>
  <path d="M302.88,320.99c5.31-1.09,12.71,1.04,16.24,5.29,4.35,5.24,4.38,15.64,4.99,22.55,3.44,39.44,4.15,79.4,6.63,118.94,2.71,43.11,7.74,88.08,8.85,131.03.33,12.82-6.45,24.79-21.01,21.01-12.83-3.33-12.24-16.89-13.17-27.58-3.44-39.44-4.15-79.4-6.63-118.94-2.71-43.14-7.54-86.78-8.84-129.94-.3-9.85,1.73-20.07,12.95-22.38Z"/>
  <path d="M501.16,320.99c15.06-3.09,20.56,9.68,20.17,22.38-2.65,87.65-13.83,175.43-16.63,263.14-2.82,12.08-15.42,17.96-26.04,10.75-6.85-4.65-7.22-11.87-6.99-19.54,2.65-87.65,13.83-175.43,16.63-263.14,1.57-6.43,6.12-12.2,12.85-13.58Z"/>
  <path d="M402.02,320.99c10.22-2.1,19.55,5.39,20.19,15.66l-.03,268.85c-3.45,20.29-31.1,19.61-33.13-1.07l.03-268.85c1.06-6.87,5.99-13.16,12.94-14.59Z"/>
</svg>